<?xml version="1.0" standalone="no"?>
<!DOCTYPE svg PUBLIC "-//W3C//DTD SVG 20010904//EN"
 "http://www.w3.org/TR/2001/REC-SVG-20010904/DTD/svg10.dtd">
<svg version="1.0" xmlns="http://www.w3.org/2000/svg"
 width="500.000000pt" height="500.000000pt" viewBox="0 0 500.000000 500.000000"
 preserveAspectRatio="xMidYMid meet">
<metadata>
Created by potrace 1.14, written by Peter Selinger 2001-2017
</metadata>
<g transform="translate(0.000000,500.000000) scale(0.100000,-0.100000)"
fill="#000000" stroke="none">
<path d="M0 2500 l0 -2500 2500 0 2500 0 0 2500 0 2500 -2500 0 -2500 0 0
-2500z m2230 2450 c0 -5 -5 -10 -11 -10 -5 0 -7 5 -4 10 3 6 8 10 11 10 2 0 4
-4 4 -10z m880 -204 c0 -3 -4 -8 -10 -11 -5 -3 -10 -1 -10 4 0 6 5 11 10 11 6
0 10 -2 10 -4z m603 -188 c3 -7 13 -30 22 -51 9 -22 11 -36 5 -32 -10 6 -50
78 -50 90 0 10 18 5 23 -7z m151 -15 c-4 -16 -11 -35 -16 -43 -7 -11 -8 -8 -4
10 3 14 6 33 6 43 0 9 5 17 10 17 6 0 8 -11 4 -27z m-631 -26 c32 -3 60 -7 63
-9 2 -3 -11 -49 -29 -104 -56 -164 -57 -151 16 -150 75 1 132 -24 163 -72 31
-46 24 -100 -42 -302 -30 -92 -54 -173 -54 -179 0 -6 -6 -11 -13 -11 -25 0
-152 48 -151 56 1 5 25 81 53 170 56 177 61 208 32 224 -21 11 -51 4 -51 -12
0 -5 -4 -7 -9 -3 -14 8 -41 -34 -34 -53 4 -9 2 -13 -4 -9 -13 8 -22 -14 -68
-163 -20 -63 -38 -116 -40 -118 -7 -8 -155 41 -155 51 0 5 45 149 100 319 55
170 98 313 95 319 -4 5 -1 9 4 9 6 0 11 8 11 18 0 26 20 43 39 33 9 -5 42 -11
74 -14z m779 -4 c-6 -10 -25 -31 -43 -48 -36 -33 -31 -19 14 38 30 38 47 45
29 10z m-356 -90 c-6 -6 -36 9 -36 18 0 5 9 4 20 -3 10 -7 18 -14 16 -15z
m217 -14 c49 -25 87 -72 87 -106 0 -68 -38 -113 -114 -133 -42 -12 -53 -20
-79 -62 -16 -26 -33 -48 -37 -48 -13 0 -40 37 -33 44 4 4 0 4 -10 0 -21 -8
-21 -3 0 40 14 30 14 42 5 74 -25 82 -3 155 56 187 32 17 95 19 125 4z m227
-7 c0 -4 -20 -15 -45 -24 -55 -21 -58 -15 -7 11 41 22 52 25 52 13z m-1550
-37 c6 -8 17 -33 24 -55 l12 -42 28 40 c35 51 71 66 141 60 90 -8 144 -62 166
-166 41 -198 -74 -367 -248 -366 l-63 0 0 -80 c0 -119 -2 -123 -63 -131 -29
-4 -64 -9 -79 -11 l-28 -4 3 327 c2 296 0 331 -15 360 -10 18 -18 36 -18 41 0
8 80 34 121 41 4 1 12 -6 19 -14z m-302 -62 c104 -43 170 -279 111 -400 -43
-89 -147 -140 -262 -130 -78 7 -121 40 -166 131 -29 57 -35 81 -39 150 -5 90
6 129 53 184 66 79 200 108 303 65z m1872 -53 c0 -11 -31 -11 -75 0 -26 7 -22
8 23 9 29 0 52 -3 52 -9z m-2358 -120 c4 -92 8 -84 -51 -92 -64 -7 -103 -37
-81 -62 9 -12 32 -16 84 -16 99 -1 146 -13 178 -49 59 -65 61 -154 5 -218 -38
-43 -133 -90 -199 -99 -29 -4 -48 -12 -48 -19 0 -15 -110 -117 -122 -113 -4 2
-63 64 -131 138 -67 74 -131 136 -140 138 -45 9 -62 -59 -31 -120 9 -17 58
-77 110 -134 52 -56 94 -107 94 -113 0 -18 -114 -111 -124 -101 -18 18 -23 10
-36 -51 -7 -34 -19 -63 -28 -66 -8 -3 -34 -1 -58 4 -24 6 -44 9 -44 8 0 -1 7
-17 16 -34 34 -68 -2 -164 -80 -212 -25 -17 -44 -20 -103 -16 -40 2 -73 0 -73
-5 0 -4 -4 -8 -10 -8 -5 0 -10 6 -10 14 0 15 -94 78 -104 70 -3 -2 -4 -1 -2 2
3 3 -8 20 -25 38 -44 47 -69 108 -69 171 0 89 36 159 134 262 l40 43 40 -24
c58 -34 94 -55 173 -103 71 -44 160 -76 194 -71 17 2 4 21 -72 106 -79 89 -94
101 -108 90 -14 -11 -14 -11 -3 4 11 14 7 20 -33 48 -25 17 -59 36 -75 41
l-29 11 29 51 c39 70 49 75 99 50 l41 -20 0 47 c0 95 110 203 188 185 45 -9
102 -51 150 -109 24 -28 72 -82 108 -121 l65 -70 -3 55 -3 55 55 6 c67 8 88
16 100 39 6 12 5 23 -4 36 -12 15 -26 18 -82 16 -91 -2 -142 13 -181 54 -63
67 -54 155 22 222 47 41 145 81 203 82 31 0 32 -2 34 -40z m2283 -10 c15 -25
-23 -5 -45 23 l-25 32 32 -23 c18 -13 35 -27 38 -32z m-395 -26 c0 -8 -4 -14
-10 -14 -5 0 -10 -8 -10 -18 0 -10 -5 -23 -11 -29 -9 -9 2 -18 39 -37 59 -30
66 -31 58 -11 -3 9 0 15 9 15 31 0 23 21 -14 36 -22 8 -42 22 -45 29 -3 10 5
8 27 -5 18 -11 42 -20 55 -20 25 0 27 -8 8 -35 -7 -11 -24 -40 -38 -65 -14
-25 -51 -89 -82 -142 -31 -53 -56 -101 -56 -107 0 -5 9 -16 20 -24 l20 -14
-19 -47 c-14 -30 -26 -46 -38 -46 -33 0 -119 47 -137 74 -39 61 -35 78 74 266
56 96 109 185 116 198 15 23 34 22 34 -4z m268 -227 c71 4 81 2 129 -26 67
-40 104 -89 111 -146 l5 -45 -37 -2 c-80 -4 -80 -4 -86 21 -8 36 -52 65 -85
57 -41 -10 -122 -92 -141 -142 -23 -60 -7 -96 56 -132 l47 -27 -23 -52 c-22
-50 -25 -52 -49 -43 -41 16 -67 31 -107 62 -20 16 -42 27 -50 26 -7 -2 -12 3
-10 10 1 8 -9 38 -24 67 -33 68 -30 122 9 190 36 62 80 110 133 144 22 14 39
32 38 39 -1 7 0 9 2 4 3 -5 39 -7 82 -5z m-1128 -307 c0 -5 -5 -10 -11 -10 -5
0 -7 5 -4 10 3 6 8 10 11 10 2 0 4 -4 4 -10z m1528 -36 c29 -14 66 -42 82 -62
34 -41 110 -183 110 -204 -1 -7 -46 -44 -102 -83 -127 -88 -204 -157 -229
-207 l-20 -38 -55 41 c-59 45 -62 57 -23 112 l20 27 -43 0 c-105 0 -184 126
-148 236 14 43 85 123 138 156 90 55 187 63 270 22z m-1868 -58 c56 -10 92
-11 143 -3 50 7 97 6 173 -4 57 -7 104 -15 104 -18 0 -3 -26 -7 -57 -7 -113
-3 -229 -16 -266 -30 -43 -16 -87 -18 -87 -4 0 5 -12 13 -27 16 -15 4 -38 13
-52 20 -28 15 -69 18 -95 8 -28 -11 -17 -24 18 -24 39 0 194 -49 255 -79 41
-22 70 -12 29 10 -21 11 -21 12 -2 26 11 8 39 13 69 12 28 -1 77 4 110 10 57
10 140 14 103 4 -10 -2 -18 -11 -18 -18 0 -19 30 -24 60 -9 31 14 66 3 75 -25
9 -31 -3 -44 -36 -37 -32 6 -37 -4 -13 -28 11 -12 35 -16 85 -16 47 0 114 -11
207 -35 158 -41 187 -51 204 -73 11 -13 11 -14 -2 -7 -22 13 -137 4 -149 -12
-3 -5 -15 -13 -25 -19 -11 -6 -23 -17 -26 -25 -4 -8 -12 -24 -18 -36 -7 -13
-12 -28 -12 -35 0 -6 -8 -21 -18 -32 -18 -21 -49 -103 -41 -110 2 -2 14 -7 27
-10 16 -6 24 -3 29 11 3 10 16 32 27 48 12 17 28 42 35 57 21 41 88 107 117
114 39 10 148 -2 184 -19 30 -15 31 -15 25 4 -5 16 -2 19 25 19 18 0 46 -7 63
-15 44 -20 119 -45 137 -45 21 0 0 14 -42 28 -21 7 -62 28 -93 47 -41 24 -52
36 -42 42 7 4 16 16 20 26 9 25 23 21 47 -13 12 -17 43 -42 68 -55 74 -39 125
-78 150 -115 19 -28 22 -42 17 -84 -7 -64 -14 -86 -26 -86 -5 0 -9 4 -9 8 0 5
-13 22 -30 38 -16 16 -30 33 -30 38 0 4 14 24 31 44 21 23 28 37 20 40 -7 2
-18 -1 -24 -7 -19 -19 -61 -12 -123 18 -60 30 -134 54 -142 46 -5 -5 60 -45
74 -45 16 0 77 -62 90 -91 6 -13 21 -49 34 -79 12 -30 30 -71 41 -92 21 -41
12 -56 -31 -51 -14 2 -43 4 -65 4 -22 1 -50 3 -63 5 -21 4 -22 6 -7 34 8 16
15 36 15 45 0 9 5 13 10 10 6 -4 10 6 11 22 0 25 1 26 9 8 8 -18 9 -19 9 -1 1
10 -31 50 -72 90 -40 39 -79 81 -87 91 -16 21 -69 49 -77 41 -3 -3 9 -20 26
-38 73 -79 101 -117 101 -138 0 -23 -37 -70 -56 -70 -19 0 -55 46 -48 63 4 11
-10 32 -40 63 -43 46 -90 68 -84 42 4 -22 -13 -60 -25 -55 -38 14 -57 17 -57
9 0 -5 11 -14 25 -20 21 -10 24 -15 15 -31 -5 -11 -20 -22 -32 -24 -13 -3 13
-4 57 -4 69 1 85 -2 113 -22 l33 -23 -25 -19 c-24 -19 -24 -20 -9 -59 9 -22
22 -40 29 -40 20 0 42 -39 36 -63 -5 -22 -5 -22 16 -3 17 14 32 18 67 14 25
-3 52 -12 62 -19 29 -24 53 -92 48 -135 -6 -44 -9 -48 -53 -62 -27 -9 -34 -9
-39 3 -3 8 -10 12 -17 8 -6 -3 -8 -3 -4 1 4 5 3 18 -2 31 -6 16 -3 30 11 51
10 16 19 34 19 41 0 15 -32 5 -43 -14 -4 -7 -15 -13 -22 -13 -8 0 -15 -4 -15
-9 0 -5 -12 -23 -26 -40 -15 -18 -22 -36 -18 -43 4 -7 -2 -4 -14 6 -22 19 -22
19 -49 -5 -14 -13 -23 -18 -19 -12 5 9 2 11 -8 7 -9 -3 -16 -11 -16 -17 0 -8
-4 -7 -12 1 -8 8 -15 8 -24 1 -9 -7 -11 -5 -10 8 0 10 8 21 16 24 9 4 21 20
29 35 7 16 18 37 23 47 5 11 7 21 5 23 -6 7 -67 -71 -67 -86 0 -6 -4 -9 -8 -6
-5 3 -35 -11 -68 -31 -32 -20 -87 -48 -121 -64 -54 -24 -63 -32 -63 -54 0 -24
13 -40 73 -90 13 -11 17 -30 17 -74 0 -62 13 -88 24 -48 3 12 6 37 6 56 l0 35
55 -57 c104 -106 121 -147 89 -210 -28 -56 -62 -76 -121 -72 -45 3 -53 0 -53
-14 0 -9 5 -22 11 -28 8 -8 5 -14 -12 -23 -23 -11 -23 -10 -5 4 23 18 18 20
-18 6 -14 -5 -26 -6 -26 -1 0 5 -10 7 -22 3 -14 -3 -19 -2 -14 6 4 7 3 12 -3
12 -6 0 1 16 14 36 14 20 30 54 37 75 9 33 15 39 39 39 15 0 40 -5 55 -10 19
-7 30 -7 40 1 20 16 17 27 -8 35 -26 8 -70 38 -110 75 -19 18 -28 37 -29 60
-1 19 -5 45 -9 59 -7 23 -8 22 -10 -10 -1 -19 -3 -44 -5 -55 -2 -11 -7 -40
-10 -65 -4 -25 -13 -57 -21 -72 -19 -37 -19 -38 21 -31 l36 6 -13 -29 c-6 -16
-25 -48 -41 -71 -26 -36 -33 -41 -58 -36 -19 3 -37 -1 -57 -15 -42 -31 -101
-41 -163 -29 -30 5 -71 9 -91 9 -37 0 -56 17 -20 19 13 0 12 3 -5 11 -13 6
-23 15 -23 20 0 11 -28 10 -32 -2 -1 -5 -31 -38 -66 -73 -136 -139 -297 -171
-395 -78 -34 31 -94 128 -85 136 2 1 15 5 29 8 23 6 28 2 44 -34 10 -22 37
-54 59 -72 35 -28 47 -32 101 -31 86 0 164 44 240 134 13 15 15 21 5 16 -8 -4
-6 0 4 8 11 9 23 16 28 16 18 0 6 17 -34 48 -34 26 -44 29 -50 18 -10 -19 -46
-9 -53 14 -3 10 -3 29 0 42 4 18 -7 35 -52 82 l-57 58 -95 -12 c-122 -15 -132
-18 -108 -31 10 -6 34 -12 55 -14 85 -8 182 -52 182 -83 -1 -41 -50 -62 -79
-33 -9 9 -21 16 -27 14 -19 -6 -37 16 -38 46 -1 30 -2 31 -36 24 -19 -4 -43
-6 -53 -5 -11 0 -15 -4 -10 -11 4 -7 -2 -5 -12 3 -17 14 -18 13 -13 -2 4 -10
1 -18 -10 -21 -9 -3 -25 -8 -34 -12 -15 -6 -18 -2 -18 19 0 18 -5 26 -17 26
-14 0 -15 -2 -5 -9 9 -5 -5 -9 -40 -11 -92 -6 -160 -1 -176 12 -12 10 -14 10
-8 1 4 -8 2 -13 -4 -13 -6 0 -8 -5 -5 -11 7 -10 -35 10 -45 22 -3 3 -12 8 -20
11 -10 3 -5 10 17 21 18 10 37 26 42 36 9 16 5 20 -34 31 -24 7 -60 9 -79 6
-20 -4 -37 -2 -41 4 -3 5 -15 10 -25 10 -21 0 -29 22 -29 80 0 19 -3 66 -7
103 -8 86 12 143 74 210 26 27 47 59 48 75 2 14 9 31 16 37 16 13 43 59 29 51
-5 -4 -3 7 6 24 8 17 13 40 10 51 -3 10 -2 17 1 15 19 -11 26 22 15 74 -6 30
-12 46 -13 35 -2 -24 -30 60 -30 91 0 11 6 28 13 39 14 18 15 18 52 -1 29 -14
42 -29 52 -58 12 -36 11 -40 -7 -53 -10 -7 -17 -19 -14 -26 2 -7 -2 -42 -9
-78 -24 -115 10 -144 48 -41 10 26 30 57 45 69 l27 22 -22 100 -22 99 44 11
c27 7 49 21 59 36 17 26 46 32 67 15 7 -6 23 -19 37 -29 14 -10 33 -33 44 -51
l19 -33 -39 7 c-22 4 -46 14 -54 21 -8 7 -39 16 -67 20 l-53 7 0 -30 c0 -39 9
-64 21 -56 5 3 7 10 4 15 -4 5 0 10 7 10 7 1 24 3 38 5 14 1 35 -2 48 -8 51
-26 10 -117 -56 -126 -35 -4 -39 -9 -24 -30 7 -9 20 -29 30 -44 23 -38 46 -37
39 1 -5 26 -2 31 23 39 22 8 31 7 41 -4 6 -8 20 -14 29 -14 17 0 17 2 3 39
-18 47 -11 106 15 120 10 5 37 5 68 -2 62 -13 79 -7 88 29 8 30 -7 47 -37 40
-9 -2 -15 -1 -12 4 3 4 -3 14 -12 21 -14 12 -16 12 -8 0 5 -10 4 -12 -4 -7 -6
4 -18 21 -26 37 -9 16 -19 27 -24 25 -4 -3 -15 4 -24 15 -15 17 -15 20 -2 25
8 3 13 9 10 14 -5 8 30 27 60 32 19 4 19 5 -3 17 -29 15 -99 24 -121 15 -9 -4
-19 -8 -23 -8 -3 -1 -10 -5 -15 -10 -5 -5 -2 -6 7 -1 20 10 4 -5 -34 -33 l-29
-22 -20 32 c-18 31 -18 33 -2 62 45 79 83 98 155 77 20 -6 15 -8 -28 -13 -36
-3 -61 -12 -75 -26 l-20 -21 55 6 c69 7 98 0 136 -32 37 -31 50 -18 20 21
l-22 27 21 -5 c16 -4 20 -2 16 8 -3 8 -16 17 -29 20 -13 3 -24 9 -24 14 0 10
-71 30 -108 30 -35 0 -100 -58 -121 -107 -11 -28 -15 -29 -66 -27 -30 1 -68 7
-84 14 -16 6 -56 10 -89 8 -53 -3 -59 -1 -58 17 2 39 120 94 173 80 22 -5 24
-10 19 -40 -9 -44 5 -45 38 -2 14 17 35 42 46 55 19 20 19 22 3 22 -10 -1 -29
-7 -42 -14 -41 -23 -57 -7 -19 19 37 25 83 40 143 49 39 5 39 5 15 -9 -38 -22
3 -20 43 2 19 10 68 20 117 23 47 4 92 7 100 8 8 1 49 -5 90 -12z m2397 -8
c-3 -8 -6 -5 -6 6 -1 11 2 17 5 13 3 -3 4 -12 1 -19z m-1765 -7 c12 -6 17 -10
11 -10 -7 -1 -13 -5 -13 -10 0 -5 17 -7 38 -4 45 6 176 -47 134 -55 -13 -2
-38 4 -57 12 -42 20 -104 21 -119 1 -10 -13 -18 -11 -63 11 -57 29 -69 44 -27
36 19 -3 25 -1 20 7 -4 6 -31 11 -59 11 -39 0 -48 3 -37 11 17 11 135 4 172
-10z m-2042 5 c0 -2 -8 -10 -17 -17 -16 -13 -17 -12 -4 4 13 16 21 21 21 13z
m2185 -95 c17 -5 57 -3 90 2 75 12 126 4 156 -27 13 -13 50 -40 82 -60 49 -32
77 -65 77 -94 0 -4 -14 10 -30 30 -31 37 -85 63 -117 55 -14 -3 -11 -7 12 -18
17 -7 36 -20 44 -27 19 -19 18 -69 -2 -89 -15 -15 -21 -13 -84 30 -37 25 -81
49 -98 53 -16 3 -61 20 -100 37 -79 34 -157 57 -197 57 -18 0 -29 7 -33 21
-10 29 -2 32 26 11 15 -12 37 -18 59 -17 19 1 40 0 45 -3 6 -4 18 -8 29 -9 10
-2 29 -12 43 -23 32 -25 81 -34 139 -25 62 9 47 19 -29 20 -51 0 -69 5 -100
27 -20 14 -55 29 -78 33 -33 6 -38 9 -28 21 11 14 20 13 94 -5z m-1418 -141
c-7 -17 -19 -30 -29 -30 -9 0 -29 -11 -44 -25 -24 -22 -29 -24 -36 -10 -12 21
-28 19 -28 -5 0 -37 -52 -48 -87 -18 -10 8 -24 13 -32 10 -18 -6 -4 18 21 36
10 7 18 20 18 28 0 11 4 12 18 5 20 -11 68 -2 122 22 19 8 47 16 62 16 25 1
26 0 15 -29z m55 2 c3 -9 2 -26 -2 -37 -4 -11 -3 -33 1 -50 15 -50 11 -77 -8
-73 -15 3 -17 12 -15 51 2 26 -1 54 -7 61 -8 9 -8 22 -1 40 11 30 26 34 32 8z
m145 -20 c7 -8 10 -18 7 -21 -3 -3 -10 2 -15 12 -6 9 -16 17 -24 17 -8 0 -17
5 -21 11 -10 17 39 0 53 -19z m2832 -72 c24 -39 42 -72 40 -74 -2 -1 -132 -56
-288 -122 -156 -65 -286 -125 -288 -132 -10 -25 20 -74 53 -88 18 -8 39 -24
45 -36 7 -13 20 -28 29 -35 41 -29 28 -93 -18 -93 -41 0 -89 61 -57 74 19 7 7
46 -14 46 -36 0 -39 -13 -20 -77 13 -42 26 -64 39 -68 23 -7 37 -51 23 -73
-15 -25 -48 -32 -73 -15 -18 13 -21 22 -17 56 3 28 -3 61 -20 106 -14 36 -26
68 -28 69 -2 2 -13 1 -24 -3 -29 -9 -28 -47 2 -60 25 -11 35 -58 16 -81 -17
-20 -66 -18 -78 4 -5 10 -9 46 -7 81 2 52 6 66 25 80 l23 18 -26 51 c-45 89
-29 163 45 199 20 10 35 22 32 27 -4 5 -1 6 4 3 6 -4 127 42 269 103 143 60
261 109 264 110 3 0 25 -32 49 -70z m-3098 -37 c11 -13 11 -17 1 -21 -7 -2
-37 -28 -67 -58 -29 -30 -58 -54 -64 -54 -6 0 -11 -9 -11 -20 0 -11 -4 -20 -9
-20 -18 0 -42 52 -39 83 3 32 12 38 80 52 15 3 40 16 55 30 34 29 37 30 54 8z
m2599 -43 c0 -5 -5 -10 -11 -10 -5 0 -7 5 -4 10 3 6 8 10 11 10 2 0 4 -4 4
-10z m-3762 -45 c102 -31 152 -100 152 -212 0 -37 -5 -85 -11 -107 -8 -29 -8
-41 1 -46 6 -4 65 -22 131 -40 95 -27 118 -37 115 -49 -3 -9 -12 -43 -22 -76
-9 -33 -19 -63 -23 -68 -4 -4 -36 1 -72 12 -35 11 -75 22 -89 25 -14 3 -92 25
-175 49 l-150 44 -3 -30 c-2 -17 2 -41 9 -53 10 -19 9 -28 -5 -49 -18 -27 -36
-31 -67 -15 -27 15 -24 54 6 86 32 34 31 42 -2 55 -32 12 -36 7 -53 -68 -9
-44 -9 -60 0 -79 11 -19 10 -27 -4 -49 -18 -27 -36 -31 -67 -15 -25 14 -25 64
0 82 12 9 25 39 35 82 21 87 20 93 -6 100 -32 8 -44 -8 -32 -42 13 -34 3 -67
-25 -81 -16 -9 -25 -7 -46 12 -23 19 -25 26 -16 48 5 15 17 29 25 32 9 4 16
13 16 22 0 8 10 25 22 37 13 13 34 64 53 132 37 129 60 179 107 223 53 51 113
62 196 38z m895 4 c35 -9 37 -12 37 -49 0 -26 -6 -43 -18 -52 -11 -7 -25 -24
-32 -38 -14 -25 -14 -25 -22 19 -9 52 -23 71 -54 71 -23 0 -74 -42 -74 -61 0
-5 -10 -21 -23 -35 -20 -22 -24 -23 -24 -7 0 10 4 24 10 31 5 6 7 12 3 12 -13
0 62 95 83 106 28 14 65 15 114 3z m226 -146 c12 -56 4 -92 -27 -127 -9 -10
-16 -21 -14 -25 1 -3 -2 -6 -8 -5 -5 1 -17 2 -26 3 -8 0 -13 5 -10 10 3 5 -1
14 -9 21 -25 21 -18 73 17 121 59 82 60 82 77 2z m2291 42 c7 -9 10 -18 7 -22
-8 -7 -37 15 -37 28 0 14 16 11 30 -6z m-3226 -11 c3 -8 2 -12 -4 -9 -6 3 -10
10 -10 16 0 14 7 11 14 -7z m567 -56 c-49 -63 -76 -105 -108 -165 -15 -29 -43
-46 -43 -25 0 18 178 251 193 252 4 0 -15 -28 -42 -62z m2535 -4 c8 3 13 2 10
-2 -3 -5 8 -21 25 -36 16 -15 29 -33 29 -40 0 -6 18 -33 40 -60 46 -56 55 -81
46 -137 -7 -46 5 -45 24 2 13 29 14 30 27 13 16 -22 16 -74 0 -95 -7 -8 -27
-24 -44 -34 -18 -11 -33 -22 -33 -26 0 -4 -15 -10 -32 -13 -31 -7 -32 -8 -14
-21 28 -21 51 -19 95 10 40 27 61 60 61 98 1 21 1 21 12 3 12 -22 -21 -234
-34 -213 -12 19 -9 55 5 61 15 7 -26 1 -73 -12 -47 -12 -120 -45 -120 -53 0
-4 -18 -16 -40 -28 -40 -21 -54 -15 -24 10 33 27 56 91 52 139 -5 45 -3 47 30
66 44 24 74 87 59 124 -9 23 -10 24 -16 5 -26 -84 -116 -95 -153 -20 -23 46
-15 65 27 65 24 0 39 7 54 26 28 36 27 51 -14 114 -19 30 -35 63 -34 75 0 18
1 18 10 -4 6 -15 14 -21 25 -17z m174 -25 c8 -30 28 -87 44 -127 15 -40 26
-75 23 -78 -7 -8 -111 110 -139 157 -35 59 -32 92 7 100 45 10 49 7 65 -52z
m673 -43 c65 -13 120 -26 123 -28 6 -7 -15 -81 -75 -268 -28 -85 -51 -164 -51
-176 0 -11 -4 -24 -9 -30 -5 -5 -26 -63 -46 -129 -20 -66 -40 -123 -43 -127
-7 -6 -141 18 -150 27 -4 3 67 607 85 727 5 32 9 37 27 33 11 -3 74 -16 139
-29z m-3368 4 c-10 -11 -15 -20 -10 -20 4 0 2 -6 -4 -13 -18 -22 -1 -27 27 -9
25 16 25 16 18 -8 -19 -64 -20 -74 -2 -67 10 4 21 7 26 7 4 0 10 9 13 20 3 10
17 22 32 26 23 6 31 2 52 -25 14 -18 43 -43 64 -57 21 -13 43 -32 48 -42 8
-15 6 -18 -12 -18 -16 1 -21 -4 -19 -18 2 -11 -1 -15 -7 -11 -6 3 -11 -2 -11
-13 0 -22 -18 -39 -39 -38 -24 1 -22 20 4 56 14 19 21 36 16 38 -5 2 -7 10 -4
19 5 13 3 13 -15 4 -11 -6 -31 -11 -43 -11 -12 0 -30 -7 -39 -15 -13 -12 -26
-13 -56 -7 -31 6 -42 15 -56 42 l-16 35 -15 -35 c-17 -38 -21 -32 -30 32 -4
29 -3 36 9 31 8 -3 15 1 15 8 3 39 17 69 42 92 27 23 34 22 12 -3z m3595 -150
c0 -5 -4 -10 -10 -10 -5 0 -10 5 -10 10 0 6 5 10 10 10 6 0 10 -4 10 -10z
m-100 -30 c0 -5 -4 -10 -10 -10 -5 0 -10 5 -10 10 0 6 5 10 10 10 6 0 10 -4
10 -10z m-3643 -48 c1 -45 16 -92 64 -212 34 -87 35 -112 3 -197 -31 -81 -46
-96 -72 -68 -9 10 -11 14 -4 10 10 -5 10 1 -2 23 -9 17 -16 41 -16 54 0 21
-19 64 -20 45 0 -5 -5 -5 -10 -2 -8 5 -7 11 1 21 6 8 9 14 5 14 -3 0 7 12 23
28 15 15 26 33 24 39 -3 7 2 16 11 19 20 7 20 21 2 55 -16 32 -30 94 -29 137
0 24 -4 32 -17 32 -21 0 -45 -52 -36 -77 5 -16 4 -16 -8 1 -14 18 -15 17 -21
-10 -11 -47 -13 -51 -13 -19 -1 63 55 155 93 155 17 0 20 -7 22 -48z m-107 3
c0 -2 -10 -10 -22 -16 -21 -11 -22 -11 -9 4 13 16 31 23 31 12z m240 -110 c25
-13 46 -15 82 -11 27 4 48 3 48 -2 0 -5 14 -12 31 -16 l32 -6 -6 -55 c-3 -30
-14 -68 -24 -85 -14 -25 -15 -34 -5 -50 11 -18 10 -20 -12 -20 -13 0 -26 -7
-30 -15 -3 -8 -1 -15 3 -15 5 0 12 6 14 13 3 6 6 2 6 -11 1 -14 5 -21 12 -16
7 4 6 -3 -2 -17 -7 -13 -13 -26 -12 -29 1 -3 -14 -5 -34 -6 -19 0 -38 -6 -42
-13 -4 -7 -15 -9 -26 -5 -12 5 -16 4 -11 -4 9 -15 -46 -43 -91 -47 l-34 -2 45
42 c24 24 47 52 51 64 3 11 10 21 14 21 5 0 15 14 22 32 7 18 20 40 29 49 35
40 40 48 30 54 -6 4 -8 10 -5 15 8 13 -5 60 -17 60 -5 0 -7 -3 -4 -8 2 -4 -2
-15 -9 -25 -13 -17 -18 -15 -74 41 -54 54 -91 113 -91 147 0 8 17 -4 39 -25
21 -21 53 -46 71 -55z m2510 20 c15 -18 5 -49 -11 -39 -8 4 -9 3 -5 -5 9 -14
-46 -71 -68 -71 -9 0 -16 -3 -16 -8 0 -10 -79 -2 -85 8 -3 5 12 19 32 31 43
26 54 39 46 53 -4 5 1 7 12 3 12 -5 25 1 41 18 27 29 37 31 54 10z m1025 -5
c-3 -5 -11 -10 -16 -10 -6 0 -7 5 -4 10 3 6 11 10 16 10 6 0 7 -4 4 -10z
m-3818 -57 c-4 -17 -4 -17 -12 0 -4 9 -4 25 0 35 8 16 8 16 12 0 3 -10 3 -26
0 -35z m-373 19 c4 -7 -98 -565 -119 -648 -6 -28 -30 -37 -49 -19 -11 11 -12
24 -5 55 5 23 7 45 4 51 -4 5 -2 9 2 9 5 0 17 46 27 103 29 162 85 437 91 448
8 11 42 12 49 1z m3506 -12 c0 -5 -4 -10 -10 -10 -5 0 -10 5 -10 10 0 6 5 10
10 10 6 0 10 -4 10 -10z m-2633 -42 c-3 -7 -5 -2 -5 12 0 14 2 19 5 13 2 -7 2
-19 0 -25z m-759 -77 c174 -87 207 -108 207 -130 0 -32 -194 -251 -221 -251
-29 0 -37 26 -16 47 48 49 174 194 171 197 -2 2 -38 21 -79 41 -156 77 -175
91 -164 118 9 24 16 22 102 -22z m3241 -12 c-12 -7 -11 -9 1 -10 8 -1 -5 -5
-29 -10 -58 -11 -62 -5 -14 19 36 19 71 19 42 1z m-3606 -35 c-1 -12 -17 -36
-34 -55 -17 -19 -57 -62 -87 -97 -63 -72 -67 -62 48 -121 119 -61 140 -75 140
-94 0 -28 -25 -30 -72 -6 -23 12 -45 21 -47 20 -2 -2 -7 3 -11 9 -4 7 -19 13
-33 13 -14 1 -23 5 -21 9 3 4 -12 16 -33 26 -68 34 -103 57 -103 68 0 6 48 66
108 133 78 89 112 121 127 119 14 -2 19 -10 18 -24z m734 -86 c-3 -7 -5 -2 -5
12 0 14 2 19 5 13 2 -7 2 -19 0 -25z m3823 12 c0 -5 -7 -10 -15 -10 -8 0 -15
5 -15 10 0 6 7 10 15 10 8 0 15 -4 15 -10z m-170 -64 c0 -3 -4 -8 -10 -11 -5
-3 -10 -1 -10 4 0 6 5 11 10 11 6 0 10 -2 10 -4z m-2920 -90 c0 -2 -9 -6 -20
-9 -11 -3 -18 -1 -14 4 5 9 34 13 34 5z m1800 0 c0 -3 -4 -8 -10 -11 -5 -3
-10 -1 -10 4 0 6 5 11 10 11 6 0 10 -2 10 -4z m192 -18 c-7 -7 -12 -8 -12 -2
0 14 12 26 19 19 2 -3 -1 -11 -7 -17z m-1949 5 c-7 -2 -19 -2 -25 0 -7 3 -2 5
12 5 14 0 19 -2 13 -5z m2457 -23 c0 -5 -6 -12 -12 -16 -7 -4 -10 -4 -6 1 4 4
3 14 -4 22 -8 11 -7 12 6 7 9 -3 16 -10 16 -14z m-2202 -2 c7 -7 12 -21 11
-32 0 -21 0 -21 -9 0 -11 28 -34 36 -67 23 -23 -8 -24 -8 -13 6 15 18 61 20
78 3z m-1081 -131 c129 -133 158 -184 158 -274 0 -54 -5 -67 -38 -115 -43 -63
-74 -88 -140 -113 -90 -34 -191 -2 -291 95 -34 33 -67 60 -73 60 -6 0 -61 -48
-122 -107 l-112 -106 -52 52 -52 53 115 110 c63 60 157 148 207 195 51 47 90
90 86 96 -3 6 -2 8 3 5 5 -3 50 32 99 78 50 46 93 84 96 84 4 0 56 -51 116
-113z m2698 83 c-3 -5 -12 -10 -18 -10 -7 0 -6 4 3 10 19 12 23 12 15 0z m245
6 c0 -2 -7 -7 -16 -10 -8 -3 -12 -2 -9 4 6 10 25 14 25 6z m620 -6 c0 -5 -5
-10 -11 -10 -5 0 -7 5 -4 10 3 6 8 10 11 10 2 0 4 -4 4 -10z m-3807 -25 c-3
-9 -8 -14 -10 -11 -3 3 -2 9 2 15 9 16 15 13 8 -4z m3117 11 c0 -3 -4 -8 -10
-11 -5 -3 -10 -1 -10 4 0 6 5 11 10 11 6 0 10 -2 10 -4z m580 -35 c16 -16 31
-27 33 -25 6 6 -10 -90 -18 -109 -10 -23 -57 -47 -93 -47 -67 0 -115 79 -89
143 31 72 114 91 167 38z m-435 -41 c3 -5 1 -10 -4 -10 -6 0 -11 5 -11 10 0 6
2 10 4 10 3 0 8 -4 11 -10z m-3805 -29 c0 -5 -7 -12 -16 -15 -14 -5 -15 -4 -4
9 14 17 20 19 20 6z m3885 -21 c4 -11 11 -17 17 -14 7 4 8 2 4 -4 -4 -6 -2
-21 4 -31 9 -18 5 -23 -32 -42 -58 -29 -108 -78 -108 -106 0 -34 34 -63 75
-63 20 0 64 13 100 29 115 53 170 52 231 -1 47 -42 64 -77 64 -138 0 -94 -58
-172 -181 -243 -25 -15 -51 -27 -57 -27 -11 0 -52 69 -52 88 0 5 23 19 51 32
83 37 148 107 118 126 -5 3 -7 9 -4 13 9 16 -34 43 -67 43 -18 0 -67 -14 -110
-31 -129 -52 -207 -38 -265 48 -29 43 -30 103 -3 170 10 27 16 51 12 54 -4 2
-2 3 5 1 6 -1 19 7 30 18 23 27 132 98 149 98 7 0 16 -9 19 -20z m-425 -40 c0
-5 -2 -10 -4 -10 -3 0 -8 5 -11 10 -3 6 -1 10 4 10 6 0 11 -4 11 -10z m37 -52
c-3 -8 -6 -5 -6 6 -1 11 2 17 5 13 3 -3 4 -12 1 -19z m-499 -28 c58 -33 86
-83 87 -155 0 -47 -5 -67 -23 -92 -21 -30 -22 -35 -9 -60 18 -34 7 -68 -23
-78 -26 -8 -23 -11 -59 55 l-30 54 40 37 c49 45 53 91 13 138 -45 54 -102 50
-187 -13 -24 -18 -29 -18 -37 -6 -22 35 -1 64 89 121 37 23 96 23 139 -1z
m-648 -30 c0 -5 -5 -10 -11 -10 -5 0 -7 5 -4 10 3 6 8 10 11 10 2 0 4 -4 4
-10z m416 -21 c-30 -36 -32 -46 -10 -78 11 -16 13 -26 6 -33 -8 -8 -17 0 -31
23 -28 45 -27 52 14 88 45 40 54 40 21 0z m213 -58 c12 -17 21 -45 21 -65 0
-31 -5 -40 -35 -57 -21 -13 -35 -29 -35 -40 0 -22 45 -114 60 -124 17 -10 11
-25 -9 -25 -13 0 -28 15 -42 40 -13 22 -25 40 -29 40 -11 0 -10 45 2 73 6 15
24 35 39 43 16 8 29 21 29 30 0 28 -28 81 -51 98 l-23 16 26 0 c18 0 33 -9 47
-29z m-874 -37 c-19 -29 -65 -73 -77 -74 -4 0 -24 -16 -43 -36 -20 -20 -39
-34 -42 -31 -3 3 16 25 41 49 25 24 52 60 61 80 11 28 21 37 42 40 37 5 39 3
18 -28z m1260 -30 c21 -30 44 -59 51 -64 7 -7 29 4 64 30 30 22 56 40 60 40 3
0 16 -20 27 -43 l21 -44 -53 -39 c-42 -30 -51 -42 -44 -54 5 -8 56 -78 112
-155 122 -166 134 -172 197 -105 l40 42 34 -28 c19 -16 35 -33 35 -37 1 -14
-107 -115 -142 -134 -18 -9 -51 -16 -75 -16 -55 0 -73 17 -198 189 -54 75
-101 131 -107 127 -6 -4 -8 0 -4 10 9 23 -17 41 -34 25 -8 -7 -27 -22 -43 -32
-29 -18 -29 -18 -48 5 -42 54 -42 57 6 90 l44 32 -33 65 -33 66 36 43 c20 24
39 43 42 43 3 0 23 -25 45 -56z m-215 -24 c0 -5 -5 -10 -11 -10 -5 0 -7 5 -4
10 3 6 8 10 11 10 2 0 4 -4 4 -10z m-2144 -121 c30 -17 54 -32 54 -34 0 -1
-34 -64 -75 -139 -42 -75 -73 -142 -69 -148 4 -7 3 -8 -4 -4 -14 8 -72 -103
-72 -137 0 -13 12 -34 26 -48 54 -51 173 -13 232 74 16 23 59 97 96 165 37 67
71 122 74 122 4 0 32 -15 63 -33 l56 -32 -94 -170 c-101 -181 -133 -260 -133
-325 l0 -40 -57 6 c-32 4 -61 12 -65 18 -10 15 -10 52 1 98 l9 37 -32 -16
c-39 -21 -138 -23 -186 -4 -110 44 -152 122 -119 222 16 48 222 419 233 419 5
0 33 -14 62 -31z m912 20 c-10 -5 -18 -15 -18 -22 0 -7 -13 -21 -28 -32 l-27
-20 19 30 c21 33 45 54 61 54 6 0 2 -4 -7 -10z m457 1 c3 -5 1 -10 -4 -10 -6
0 -11 5 -11 10 0 6 2 10 4 10 3 0 8 -4 11 -10z m-445 -80 c0 -5 -5 -10 -11
-10 -5 0 -7 5 -4 10 3 6 8 10 11 10 2 0 4 -4 4 -10z m-2050 -51 c0 -6 -4 -7
-10 -4 -5 3 -10 11 -10 16 0 6 5 7 10 4 6 -3 10 -11 10 -16z m1930 12 c0 -5
-7 -12 -16 -15 -24 -9 -28 -7 -14 9 14 17 30 20 30 6z m197 -43 c-3 -8 -6 -5
-6 6 -1 11 2 17 5 13 3 -3 4 -12 1 -19z m1143 -12 c5 -16 10 -30 10 -32 0 -7
-60 -34 -75 -34 -19 0 -50 62 -42 84 5 11 18 15 51 14 41 -2 47 -6 56 -32z
m-80 -76 c24 -13 69 0 91 26 9 11 31 -27 105 -176 79 -158 97 -189 114 -187
11 2 23 6 26 10 13 13 22 7 44 -28 22 -35 22 -36 4 -57 -39 -43 -117 -60 -169
-36 -32 14 -42 32 -150 248 -49 96 -96 181 -106 188 -20 14 -35 74 -24 92 5 7
14 -4 25 -28 10 -22 28 -46 40 -52z m-135 -190 c38 -175 69 -267 109 -326 l35
-51 -45 -33 c-41 -29 -46 -31 -67 -17 -12 8 -33 32 -47 54 l-24 40 -22 -48
c-55 -118 -237 -169 -319 -89 -42 41 -55 76 -105 285 -22 94 -43 177 -46 185
-19 46 -11 59 43 71 29 7 50 15 48 20 -3 4 4 5 15 2 22 -6 21 -3 55 -148 60
-260 68 -287 92 -316 14 -16 35 -29 46 -29 66 0 127 86 127 177 0 53 -32 208
-52 253 -6 14 -12 36 -13 50 -2 14 -5 34 -7 44 -2 16 8 22 62 36 l65 17 12
-26 c6 -14 23 -82 38 -151z m-3005 160 c0 -5 -5 -10 -11 -10 -5 0 -7 5 -4 10
3 6 8 10 11 10 2 0 4 -4 4 -10z m3813 -5 c-3 -9 -8 -14 -10 -11 -3 3 -2 9 2
15 9 16 15 13 8 -4z m-2153 -29 c5 -16 10 -47 10 -70 l0 -40 30 32 c45 49 118
75 165 58 11 -4 35 -14 53 -22 l33 -14 -22 -38 c-53 -87 -47 -82 -83 -67 -56
24 -115 2 -158 -56 -10 -13 -36 -98 -59 -189 -23 -91 -46 -169 -50 -173 -9
-12 -120 13 -126 28 -2 7 17 95 42 195 42 166 46 193 43 277 l-3 93 40 8 c64
12 74 10 85 -22z m-494 -43 c-10 -10 -19 5 -10 18 6 11 8 11 12 0 2 -7 1 -15
-2 -18z m1147 -33 c31 -12 57 -23 57 -25 0 -3 -10 -24 -21 -49 l-22 -44 -33
14 c-93 39 -165 37 -179 -5 -8 -25 3 -63 16 -56 5 3 6 0 3 -8 -6 -17 4 -26 91
-72 39 -20 82 -50 97 -66 54 -57 60 -143 15 -209 -51 -76 -139 -106 -245 -83
-57 12 -162 50 -162 59 0 12 46 94 52 94 5 0 32 -12 61 -27 57 -29 134 -36
161 -14 27 23 20 78 -14 113 -19 18 -36 28 -46 24 -8 -3 -12 -2 -9 4 3 6 -5
14 -19 20 -50 19 -103 61 -124 99 -26 46 -29 118 -7 161 17 33 66 72 110 89
43 15 150 6 218 -19z m368 -23 c-10 -9 -11 -8 -5 6 3 10 9 15 12 12 3 -3 0
-11 -7 -18z m1559 -11 c0 -3 -4 -8 -10 -11 -5 -3 -10 -1 -10 4 0 6 5 11 10 11
6 0 10 -2 10 -4z m-1503 -58 c-3 -8 -6 -5 -6 6 -1 11 2 17 5 13 3 -3 4 -12 1
-19z m-1752 -18 c3 -5 1 -10 -4 -10 -6 0 -11 5 -11 10 0 6 2 10 4 10 3 0 8 -4
11 -10z m3587 -112 c-6 -6 -15 -8 -19 -4 -4 4 -1 11 7 16 19 12 27 3 12 -12z
m-2388 -189 c-3 -5 -10 -7 -15 -3 -5 3 -7 10 -3 15 3 5 10 7 15 3 5 -3 7 -10
3 -15z m-1764 -9 c-8 -5 -19 -10 -25 -10 -5 0 -3 5 5 10 8 5 20 10 25 10 6 0
3 -5 -5 -10z m430 6 c0 -3 -4 -8 -10 -11 -5 -3 -10 -1 -10 4 0 6 5 11 10 11 6
0 10 -2 10 -4z m3600 -36 c0 -5 -4 -10 -10 -10 -5 0 -10 5 -10 10 0 6 5 10 10
10 6 0 10 -4 10 -10z m-3700 -200 c0 -5 -5 -10 -11 -10 -5 0 -7 5 -4 10 3 6 8
10 11 10 2 0 4 -4 4 -10z"/>
<path d="M3785 4337 c-8 -13 -17 -39 -20 -58 l-5 -34 13 35 c6 19 16 41 20 48
13 19 36 14 34 -7 0 -11 -5 -19 -10 -18 -5 1 -12 -4 -15 -12 -3 -10 0 -12 13
-7 11 4 22 1 27 -6 6 -10 10 -10 18 2 9 13 11 13 19 0 7 -9 6 -20 -2 -30 -11
-13 -10 -13 6 -1 9 7 17 19 17 26 0 13 -77 85 -91 85 -5 0 -15 -10 -24 -23z
m75 -31 c0 -3 -4 -8 -10 -11 -5 -3 -10 -1 -10 4 0 6 5 11 10 11 6 0 10 -2 10
-4z"/>
<path d="M3728 4180 c-14 -33 -22 -58 -17 -54 6 3 7 -6 4 -23 l-6 -28 17 30
c22 41 52 72 98 106 21 16 36 29 32 29 -15 0 -96 -62 -107 -81 -18 -34 -21
-15 -4 25 27 64 12 60 -17 -4z"/>
<path d="M2660 4225 c-15 -16 -24 -38 -24 -59 -1 -19 -4 -32 -8 -29 -5 2 -8
-36 -8 -85 0 -84 1 -90 22 -95 33 -9 71 13 90 53 21 41 25 174 6 215 -15 32
-47 33 -78 0z"/>
<path d="M2070 4175 c-20 -24 -7 -139 23 -207 20 -44 32 -59 53 -64 63 -16 84
36 59 143 -22 94 -50 137 -91 141 -19 2 -36 -3 -44 -13z"/>
<path d="M826 3268 c-40 -56 -2 -115 112 -176 76 -41 115 -40 120 1 5 44 -33
93 -116 147 -42 27 -82 50 -88 50 -7 0 -20 -10 -28 -22z"/>
<path d="M4210 3393 c-30 -11 -140 -94 -151 -114 -6 -12 -8 -32 -4 -46 6 -24
9 -25 60 -21 44 4 68 14 134 58 49 31 81 59 81 70 0 41 -69 72 -120 53z"/>
<path d="M2361 3366 c-9 -10 5 -26 64 -75 41 -33 79 -61 84 -61 5 0 14 13 19
30 9 26 8 30 -11 36 -12 5 -26 9 -32 9 -25 5 -55 18 -55 25 0 4 -9 10 -20 13
-13 3 -18 10 -14 21 8 20 -19 22 -35 2z"/>
<path d="M2683 3305 c-39 -24 -41 -28 -36 -60 5 -30 3 -35 -15 -35 -11 0 -29
-2 -39 -5 -11 -3 -9 -1 5 6 21 11 31 39 14 39 -11 0 -62 -54 -62 -66 0 -21 42
-35 84 -29 24 4 70 1 102 -5 59 -12 65 -15 121 -44 36 -19 43 -20 43 -6 0 5
-15 16 -32 24 -18 8 -48 28 -66 45 -19 17 -47 38 -63 46 -16 9 -31 26 -35 40
-10 38 15 55 83 55 41 0 54 3 43 10 -29 19 -103 11 -147 -15z"/>
<path d="M2760 3272 c0 -15 34 -40 75 -58 22 -9 48 -23 58 -32 11 -10 17 -11
17 -3 0 22 -20 51 -36 51 -9 0 -29 9 -45 21 -16 11 -29 17 -29 13 0 -5 -5 -3
-12 4 -14 14 -28 16 -28 4z"/>
<path d="M2971 3163 c4 -21 11 -91 15 -155 l7 -118 46 0 c25 0 41 4 35 8 -48
33 -38 184 14 221 12 8 19 18 16 23 -3 4 4 8 15 8 12 0 21 5 21 10 0 6 -24 11
-52 12 -68 1 -69 2 -95 16 -31 17 -32 16 -22 -25z"/>
<path d="M2450 3174 c0 -8 5 -12 10 -9 6 4 8 11 5 16 -9 14 -15 11 -15 -7z"/>
<path d="M2477 3112 l-16 -29 44 -40 c50 -45 73 -90 51 -99 -35 -13 -46 -102
-17 -136 8 -11 10 -18 3 -18 -6 0 -12 5 -14 11 -2 5 -11 11 -20 13 -10 1 -20
5 -23 8 -6 5 -85 -9 -93 -17 -3 -2 5 -19 17 -38 11 -19 21 -39 21 -44 0 -6
-20 -31 -45 -55 -25 -26 -48 -59 -51 -76 -6 -28 -10 -30 -60 -37 -60 -7 -80
-28 -70 -71 9 -34 94 -83 145 -84 8 0 34 -9 58 -21 37 -18 41 -23 33 -40 -6
-10 -23 -22 -38 -25 -15 -4 -35 -12 -45 -19 -16 -11 -15 -15 14 -56 18 -24 33
-45 34 -47 1 -1 16 1 33 4 29 6 47 34 21 34 -11 0 -74 59 -68 64 16 13 76 36
94 36 29 0 61 -32 75 -75 6 -19 16 -35 21 -35 11 0 11 7 0 48 -5 17 -6 32 -2
32 19 0 71 -23 71 -31 0 -20 31 -20 99 1 55 16 71 25 71 39 0 10 7 36 16 57
23 52 43 149 44 203 0 28 7 52 17 63 16 18 16 22 2 46 -9 15 -21 26 -27 24 -7
-1 -11 1 -10 5 3 12 -21 54 -59 101 -31 38 -39 42 -79 42 -37 0 -44 3 -44 20
0 11 6 20 13 20 6 1 0 7 -15 16 -21 11 -30 25 -34 53 -5 30 -22 57 -71 110
-36 39 -68 71 -72 71 -4 0 -14 -13 -24 -28z m87 -277 l17 -30 -20 24 c-12 13
-21 28 -21 34 0 12 0 11 24 -28z m170 -37 c27 -63 38 -135 28 -170 -6 -18 -14
-52 -17 -76 -7 -45 -25 -48 -25 -4 0 34 -31 102 -57 125 -11 9 -37 25 -58 36
l-37 18 36 22 c42 26 46 36 12 27 -14 -3 -27 -2 -30 2 -2 4 4 9 15 9 11 1 32
11 47 22 41 31 70 27 86 -11z m-138 -137 c45 -21 74 -54 74 -86 -1 -15 -6 -11
-20 16 -21 41 -51 57 -135 75 l-60 12 50 1 c29 0 67 -7 91 -18z m207 -207 c2
-44 0 -49 -25 -58 -37 -13 -42 -5 -24 35 8 19 18 47 21 63 9 43 26 18 28 -40z
m-162 3 c-12 -19 -28 -37 -36 -40 -8 -3 0 13 18 37 38 51 49 52 18 3z"/>
<path d="M2710 3010 c38 -53 100 -82 183 -84 l37 -1 0 58 c0 53 -1 57 -16 43
-18 -18 -51 -20 -88 -6 -14 5 -50 12 -81 15 l-56 5 21 -30z"/>
<path d="M2407 2997 c-8 -13 -13 -34 -10 -48 3 -16 -1 -30 -11 -38 -9 -8 -16
-19 -16 -25 0 -6 5 -4 10 4 8 12 10 10 10 -9 0 -22 3 -23 36 -18 47 8 49 10
49 65 0 32 -6 54 -20 70 -24 28 -29 28 -48 -1z"/>
<path d="M2243 2923 c12 -68 19 -84 33 -72 19 15 18 44 -2 74 -22 33 -36 32
-31 -2z"/>
<path d="M2988 2821 c-2 -17 -1 -28 2 -26 4 2 14 -13 23 -34 15 -34 16 -43 3
-86 -11 -36 -12 -53 -4 -69 16 -31 17 -31 32 -11 12 16 13 15 9 -11 -3 -16 3
-49 12 -74 9 -25 22 -60 28 -77 7 -18 15 -33 20 -33 14 0 169 80 197 102 35
28 37 43 8 59 -17 9 -23 9 -26 0 -2 -6 -8 -9 -13 -5 -5 3 -9 -4 -9 -16 0 -12
-5 -18 -10 -15 -6 3 -13 -1 -16 -9 -10 -26 -20 -18 -49 37 -20 40 -25 63 -21
89 10 61 18 74 49 69 4 0 7 6 7 14 0 8 3 15 6 15 13 0 74 -33 74 -40 0 -4 13
-13 30 -18 20 -7 34 -23 45 -48 16 -38 16 -38 31 -16 18 27 12 70 -17 105 -44
57 -177 114 -195 85 -10 -15 -71 -2 -101 21 -17 14 -40 21 -68 21 -40 0 -43
-2 -47 -29z m189 -263 c-3 -8 -6 -5 -6 6 -1 11 2 17 5 13 3 -3 4 -12 1 -19z"/>
<path d="M2976 2734 c-10 -26 -7 -56 6 -52 6 2 14 10 16 18 3 8 0 10 -7 6 -8
-6 -10 0 -5 18 7 28 0 36 -10 10z"/>
<path d="M2118 2733 c-17 -4 -23 -27 -18 -62 1 -8 14 -37 30 -64 l28 -49 17
54 c10 29 21 58 25 63 15 21 18 55 5 55 -7 0 -25 2 -41 4 -16 2 -37 2 -46 -1z"/>
<path d="M2261 2678 c-10 -27 -9 -29 7 -23 9 4 33 13 52 20 l35 13 -30 7 c-16
4 -35 8 -42 10 -6 2 -16 -10 -22 -27z"/>
<path d="M2010 2686 c0 -7 6 -31 13 -52 8 -22 11 -50 7 -65 -8 -27 -54 -79
-71 -79 -6 0 -8 -4 -5 -8 3 -5 -8 -6 -25 -4 -16 2 -29 8 -29 13 0 5 -5 9 -11
9 -5 0 -8 -4 -5 -9 7 -11 -45 -5 -53 7 -3 5 -19 12 -34 16 -15 4 -25 11 -22
16 3 5 2 11 -3 14 -14 9 -77 -57 -99 -104 -24 -51 -26 -61 -24 -105 2 -40 14
-57 35 -49 14 5 15 9 4 16 -28 20 99 -1 135 -22 30 -18 49 -22 92 -18 30 3 52
1 50 -2 -5 -8 54 -20 103 -20 29 0 32 3 32 33 0 17 3 41 5 52 4 15 -1 23 -22
33 -30 14 -55 16 -35 3 11 -7 11 -9 -2 -14 -9 -4 -15 -1 -13 6 1 7 -8 12 -20
12 -13 0 -22 4 -22 9 0 5 -5 12 -11 16 -8 5 8 14 39 25 28 9 51 21 51 26 0 5
13 9 29 9 47 0 46 27 -4 119 -24 46 -47 91 -50 101 -7 22 -35 35 -35 16z
m-170 -210 c0 -2 -7 -7 -16 -10 -8 -3 -12 -2 -9 4 6 10 25 14 25 6z m17 -22
c-3 -3 -12 -4 -19 -1 -8 3 -5 6 6 6 11 1 17 -2 13 -5z"/>
<path d="M1862 2627 c-20 -9 -23 -15 -17 -46 4 -20 11 -44 17 -55 9 -17 12
-17 19 -4 9 16 15 105 8 112 -2 2 -14 -1 -27 -7z"/>
<path d="M3010 2383 c0 -7 -86 -47 -102 -48 -3 0 -10 -4 -15 -9 -10 -11 12 -5
95 26 34 13 59 27 56 31 -10 9 -34 9 -34 0z"/>
<path d="M2161 2303 c-9 -45 -8 -58 1 -65 9 -6 10 -10 2 -15 -6 -5 -13 -19
-17 -32 -6 -24 -5 -24 55 -17 34 3 74 6 91 6 29 0 29 0 13 25 -9 13 -16 32
-16 41 0 29 -72 114 -96 114 -18 0 -23 -9 -33 -57z"/>
<path d="M2965 2286 c-109 -32 -111 -33 -102 -42 3 -3 45 6 92 21 48 15 93 24
100 21 17 -6 27 6 17 20 -5 7 -43 0 -107 -20z"/>
<path d="M2750 2220 c-12 -8 -9 -10 12 -10 15 0 30 5 33 10 8 13 -25 13 -45 0z"/>
<path d="M1926 2190 c7 -6 46 -14 88 -17 65 -4 76 -3 76 11 0 9 -5 16 -11 16
-5 0 -8 -4 -5 -8 6 -10 -100 -8 -134 2 -19 6 -22 6 -14 -4z"/>
<path d="M2925 2187 c-11 -8 -36 -20 -57 -26 -31 -10 -41 -22 -72 -85 -20 -40
-36 -75 -36 -79 0 -3 40 14 90 39 80 41 110 48 110 25 0 -4 -12 -21 -27 -37
-34 -35 -93 -70 -93 -54 0 6 -14 2 -30 -10 -18 -13 -39 -20 -51 -17 -27 7 -64
-49 -45 -68 12 -13 74 -47 78 -44 2 1 20 -1 41 -5 30 -6 44 -3 66 13 16 12 34
21 39 21 26 0 21 24 -9 50 -19 16 -28 29 -21 30 6 0 12 7 12 15 0 19 26 19 79
0 39 -14 42 -13 55 8 17 26 26 69 31 137 3 50 3 50 -27 50 -17 0 -37 8 -46 20
-23 26 -62 34 -87 17z"/>
<path d="M2460 2141 c0 -11 80 -111 88 -111 4 0 21 4 39 9 25 7 40 5 68 -11
21 -10 43 -17 50 -14 15 5 48 103 39 117 -3 6 -15 9 -25 6 -10 -3 -21 -2 -24
2 -5 10 -151 7 -190 -3 -22 -6 -26 -5 -15 3 12 9 11 11 -7 11 -13 0 -23 -4
-23 -9z"/>
<path d="M2591 2001 c-7 -5 4 -22 28 -45 39 -38 39 -38 51 -16 10 19 9 25 -11
44 -25 22 -49 28 -68 17z"/>
<path d="M4335 2480 c-3 -5 -1 -10 4 -10 6 0 11 5 11 10 0 6 -2 10 -4 10 -3 0
-8 -4 -11 -10z"/>
<path d="M468 2832 c-34 -4 -70 -48 -66 -80 3 -22 13 -28 83 -48 95 -28 111
-29 119 -8 30 78 -40 148 -136 136z"/>
<path d="M195 2510 c-3 -5 1 -10 10 -10 9 0 13 5 10 10 -3 6 -8 10 -10 10 -2
0 -7 -4 -10 -10z"/>
<path d="M390 2430 c0 -5 5 -10 10 -10 6 0 10 5 10 10 0 6 -4 10 -10 10 -5 0
-10 -4 -10 -10z"/>
<path d="M270 2360 c0 -5 5 -10 10 -10 6 0 10 5 10 10 0 6 -4 10 -10 10 -5 0
-10 -4 -10 -10z"/>
<path d="M635 2388 c-9 -29 -115 -594 -115 -617 0 -69 23 20 75 289 31 162 59
305 62 318 5 23 -14 32 -22 10z"/>
<path d="M700 2293 c0 -5 56 -37 125 -73 69 -36 125 -69 125 -75 0 -5 -41 -56
-91 -113 -50 -56 -89 -107 -87 -113 4 -13 208 213 208 229 0 9 -257 152 -274
152 -3 0 -6 -3 -6 -7z"/>
<path d="M293 2129 c-54 -60 -99 -113 -101 -117 -3 -11 267 -154 281 -149 6 2
-20 21 -58 42 -39 21 -98 53 -133 72 -73 40 -80 19 51 164 42 48 77 89 77 93
0 20 -30 -6 -117 -105z"/>
<path d="M913 1680 c-57 -53 -103 -102 -103 -108 0 -21 111 -112 138 -113 69
-3 109 17 148 72 28 41 46 118 24 104 -8 -5 -11 -3 -8 6 8 20 -15 59 -59 101
l-38 36 -102 -98z"/>
</g>
</svg>
